G04 Layer: TopSolderMaskLayer*
G04 EasyEDA v5.9.42, Fri, 19 Apr 2019 15:14:02 GMT*
G04 1b50a63325eb494884fe414bfed8a826*
G04 Gerber Generator version 0.2*
G04 Scale: 100 percent, Rotated: No, Reflected: No *
G04 Dimensions in inches *
G04 leading zeros omitted , absolute positions ,2 integer and 4 decimal *
%FSLAX24Y24*%
%MOIN*%
G90*
G70D02*

%ADD37C,0.031622*%
%ADD38C,0.047370*%
%ADD39R,0.073000X0.073000*%
%ADD40C,0.073000*%
%ADD41R,0.070000X0.070000*%
%ADD42C,0.070000*%
%ADD43R,0.066800X0.023748*%
%ADD44R,0.165480X0.185165*%
%ADD45C,0.055244*%
%ADD46R,0.071000X0.078900*%
%ADD47R,0.051300X0.055200*%
%ADD48R,0.078900X0.071000*%
%ADD49R,0.055200X0.051300*%
%ADD50R,0.053670X0.065870*%
%ADD51R,0.065870X0.053670*%
%ADD52R,0.070992X0.023748*%
%ADD53C,0.086740*%

%LPD*%
G54D37*
G01X10056Y6330D02*
G01X10726Y6330D01*
G01X10056Y6830D02*
G01X10726Y6830D01*
G01X10056Y7330D02*
G01X10726Y7330D01*
G01X10056Y7830D02*
G01X10726Y7830D01*
G01X10056Y8330D02*
G01X10726Y8330D01*
G01X10056Y8830D02*
G01X10726Y8830D01*
G01X10056Y9330D02*
G01X10726Y9330D01*
G01X10056Y9830D02*
G01X10726Y9830D01*
G01X10056Y10330D02*
G01X10726Y10330D01*
G01X10056Y10830D02*
G01X10726Y10830D01*
G01X10056Y11330D02*
G01X10726Y11330D01*
G01X10056Y11830D02*
G01X10726Y11830D01*
G01X6474Y6330D02*
G01X7143Y6330D01*
G01X6474Y6830D02*
G01X7143Y6830D01*
G01X6474Y7330D02*
G01X7143Y7330D01*
G01X6474Y7830D02*
G01X7143Y7830D01*
G01X6474Y8330D02*
G01X7143Y8330D01*
G01X6474Y8830D02*
G01X7143Y8830D01*
G01X6474Y9330D02*
G01X7143Y9330D01*
G01X6474Y9830D02*
G01X7143Y9830D01*
G01X6474Y10330D02*
G01X7143Y10330D01*
G01X6474Y10830D02*
G01X7143Y10830D01*
G01X6474Y11330D02*
G01X7143Y11330D01*
G01X6474Y11830D02*
G01X7143Y11830D01*
G01X32663Y7394D02*
G01X33333Y7394D01*
G01X32663Y7894D02*
G01X33333Y7894D01*
G01X32663Y8394D02*
G01X33333Y8394D01*
G01X32663Y8894D02*
G01X33333Y8894D01*
G01X32663Y9394D02*
G01X33333Y9394D01*
G01X32663Y9894D02*
G01X33333Y9894D01*
G01X32663Y10394D02*
G01X33333Y10394D01*
G01X32663Y10894D02*
G01X33333Y10894D01*
G01X28573Y7394D02*
G01X29243Y7394D01*
G01X28573Y7894D02*
G01X29243Y7894D01*
G01X28573Y8394D02*
G01X29243Y8394D01*
G01X28573Y8894D02*
G01X29243Y8894D01*
G01X28573Y9394D02*
G01X29243Y9394D01*
G01X28573Y9894D02*
G01X29243Y9894D01*
G01X28573Y10394D02*
G01X29243Y10394D01*
G01X28573Y10894D02*
G01X29243Y10894D01*
G54D38*
G01X2297Y5367D02*
G01X2060Y5367D01*
G01X2297Y2532D02*
G01X2060Y2532D01*
G01X1017Y2532D02*
G01X624Y2532D01*
G01X1017Y5367D02*
G01X624Y5367D01*
G01X22446Y14000D02*
G01X22053Y14000D01*
G01X22446Y13500D02*
G01X22053Y13500D01*
G01X22446Y13000D02*
G01X22053Y13000D01*
G54D39*
G01X1150Y14650D03*
G54D40*
G01X1150Y13650D03*
G01X1150Y12650D03*
G01X1150Y11650D03*
G54D41*
G01X36950Y4650D03*
G54D42*
G01X28950Y5650D03*
G01X28950Y4650D03*
G01X29950Y5650D03*
G01X29950Y4650D03*
G01X30950Y5650D03*
G01X30950Y4650D03*
G01X31950Y5650D03*
G01X31950Y4650D03*
G01X32950Y5650D03*
G01X32950Y4650D03*
G01X33950Y5650D03*
G01X33950Y4650D03*
G01X34950Y5650D03*
G01X34950Y4650D03*
G01X35950Y5650D03*
G01X35950Y4650D03*
G01X36950Y5650D03*
G54D43*
G01X17768Y9228D03*
G01X17768Y8972D03*
G01X17768Y8715D03*
G01X17768Y8460D03*
G01X20130Y9995D03*
G01X17768Y9995D03*
G01X17768Y9739D03*
G01X17768Y9484D03*
G01X20131Y8204D03*
G01X20131Y8459D03*
G01X20131Y8715D03*
G01X20131Y8971D03*
G01X20131Y9228D03*
G01X20131Y9484D03*
G01X17768Y8204D03*
G01X20130Y9739D03*
G01X17768Y10251D03*
G01X17768Y7948D03*
G01X20131Y7948D03*
G01X20131Y10251D03*
G54D44*
G01X41699Y11650D03*
G01X41699Y5650D03*
G54D45*
G01X41700Y7240D03*
G01X41700Y10190D03*
G54D46*
G01X18500Y6449D03*
G01X19600Y6449D03*
G54D47*
G01X19054Y5200D03*
G01X18385Y5200D03*
G54D48*
G01X12699Y8900D03*
G01X12699Y7800D03*
G54D49*
G01X13921Y8345D03*
G01X13921Y9014D03*
G54D50*
G01X35450Y11850D03*
G01X34650Y11850D03*
G01X35450Y10700D03*
G01X34650Y10700D03*
G54D47*
G01X41300Y13700D03*
G01X41969Y13700D03*
G54D50*
G01X26550Y10600D03*
G01X27350Y10600D03*
G54D48*
G01X27187Y8850D03*
G01X27187Y7750D03*
G54D49*
G01X25850Y8296D03*
G01X25850Y8965D03*
G54D51*
G01X15050Y9003D03*
G01X15050Y8203D03*
G54D48*
G01X4150Y4450D03*
G01X4150Y3350D03*
G54D49*
G01X5800Y3799D03*
G01X5800Y4468D03*
G54D52*
G01X2061Y4461D03*
G01X2061Y4205D03*
G01X2061Y3950D03*
G01X2061Y3694D03*
G01X2061Y3438D03*
G54D50*
G01X46700Y14250D03*
G01X45900Y14250D03*
G01X46700Y8775D03*
G01X45900Y8775D03*
G01X46700Y3300D03*
G01X45900Y3300D03*
G54D51*
G01X20550Y13103D03*
G01X20550Y13903D03*
G54D53*
G01X4023Y786D03*
G01X5023Y786D03*
G01X6023Y786D03*
G01X7023Y786D03*
G01X8023Y786D03*
G01X8023Y16534D03*
G01X7023Y16534D03*
G01X6023Y16534D03*
G01X5023Y16534D03*
G01X4023Y16534D03*
G01X16123Y786D03*
G01X17123Y786D03*
G01X18123Y786D03*
G01X19123Y786D03*
G01X20123Y786D03*
G01X20123Y16534D03*
G01X19123Y16534D03*
G01X18123Y16534D03*
G01X17123Y16534D03*
G01X16123Y16534D03*
G01X28223Y786D03*
G01X29223Y786D03*
G01X30223Y786D03*
G01X31223Y786D03*
G01X32223Y786D03*
G01X32223Y16534D03*
G01X31223Y16534D03*
G01X30223Y16534D03*
G01X29223Y16534D03*
G01X28223Y16534D03*
G01X40323Y786D03*
G01X41323Y786D03*
G01X42323Y786D03*
G01X43323Y786D03*
G01X44323Y786D03*
G01X44323Y16534D03*
G01X43323Y16534D03*
G01X42323Y16534D03*
G01X41323Y16534D03*
G01X40323Y16534D03*
M00*
M02*
