G04 Layer: BottomSolderMaskLayer*
G04 EasyEDA v5.9.42, Fri, 19 Apr 2019 15:14:02 GMT*
G04 1b50a63325eb494884fe414bfed8a826*
G04 Gerber Generator version 0.2*
G04 Scale: 100 percent, Rotated: No, Reflected: No *
G04 Dimensions in inches *
G04 leading zeros omitted , absolute positions ,2 integer and 4 decimal *
%FSLAX24Y24*%
%MOIN*%
G90*
G70D02*

%ADD38C,0.047370*%
%ADD39R,0.073000X0.073000*%
%ADD40C,0.073000*%
%ADD41R,0.070000X0.070000*%
%ADD42C,0.070000*%
%ADD45C,0.055244*%
%ADD53C,0.086740*%
%ADD54R,0.067055X0.055240*%

%LPD*%
G54D38*
G01X2297Y5367D02*
G01X2060Y5367D01*
G01X2297Y2532D02*
G01X2060Y2532D01*
G01X1017Y2532D02*
G01X624Y2532D01*
G01X1017Y5367D02*
G01X624Y5367D01*
G01X22446Y14000D02*
G01X22053Y14000D01*
G01X22446Y13500D02*
G01X22053Y13500D01*
G01X22446Y13000D02*
G01X22053Y13000D01*
G54D54*
G01X47775Y8750D03*
G01X44625Y8750D03*
G54D39*
G01X1150Y14650D03*
G54D40*
G01X1150Y13650D03*
G01X1150Y12650D03*
G01X1150Y11650D03*
G54D54*
G01X47775Y14300D03*
G01X44625Y14300D03*
G01X47775Y3300D03*
G01X44625Y3300D03*
G54D41*
G01X36950Y4650D03*
G54D42*
G01X28950Y5650D03*
G01X28950Y4650D03*
G01X29950Y5650D03*
G01X29950Y4650D03*
G01X30950Y5650D03*
G01X30950Y4650D03*
G01X31950Y5650D03*
G01X31950Y4650D03*
G01X32950Y5650D03*
G01X32950Y4650D03*
G01X33950Y5650D03*
G01X33950Y4650D03*
G01X34950Y5650D03*
G01X34950Y4650D03*
G01X35950Y5650D03*
G01X35950Y4650D03*
G01X36950Y5650D03*
G54D45*
G01X41700Y7240D03*
G01X41700Y10190D03*
G54D53*
G01X4023Y786D03*
G01X5023Y786D03*
G01X6023Y786D03*
G01X7023Y786D03*
G01X8023Y786D03*
G01X8023Y16534D03*
G01X7023Y16534D03*
G01X6023Y16534D03*
G01X5023Y16534D03*
G01X4023Y16534D03*
G01X16123Y786D03*
G01X17123Y786D03*
G01X18123Y786D03*
G01X19123Y786D03*
G01X20123Y786D03*
G01X20123Y16534D03*
G01X19123Y16534D03*
G01X18123Y16534D03*
G01X17123Y16534D03*
G01X16123Y16534D03*
G01X28223Y786D03*
G01X29223Y786D03*
G01X30223Y786D03*
G01X31223Y786D03*
G01X32223Y786D03*
G01X32223Y16534D03*
G01X31223Y16534D03*
G01X30223Y16534D03*
G01X29223Y16534D03*
G01X28223Y16534D03*
G01X40323Y786D03*
G01X41323Y786D03*
G01X42323Y786D03*
G01X43323Y786D03*
G01X44323Y786D03*
G01X44323Y16534D03*
G01X43323Y16534D03*
G01X42323Y16534D03*
G01X41323Y16534D03*
G01X40323Y16534D03*
M00*
M02*
