G04 Layer: TopSilkLayer*
G04 EasyEDA v5.9.42, Fri, 19 Apr 2019 15:14:02 GMT*
G04 1b50a63325eb494884fe414bfed8a826*
G04 Gerber Generator version 0.2*
G04 Scale: 100 percent, Rotated: No, Reflected: No *
G04 Dimensions in inches *
G04 leading zeros omitted , absolute positions ,2 integer and 4 decimal *
%FSLAX24Y24*%
%MOIN*%
G90*
G70D02*

%ADD10C,0.010000*%
%ADD11C,0.006000*%
%ADD12C,0.023622*%
%ADD13C,0.008000*%
%ADD32C,0.009000*%
%ADD33C,0.007870*%
%ADD34C,0.009842*%
%ADD35C,0.011811*%
%ADD36C,0.005000*%

%LPD*%
G54D10*
G01X18173Y7796D02*
G01X18173Y10395D01*
G01X19703Y7796D02*
G01X19703Y10406D01*
G01X18173Y7796D02*
G01X19703Y7796D01*
G01X18173Y10406D02*
G01X18713Y10406D01*
G01X19153Y10406D02*
G01X19703Y10406D01*
G54D11*
G01X41700Y10050D02*
G01X41700Y9250D01*
G01X41300Y9650D02*
G01X42100Y9650D01*
G01X42050Y7504D02*
G01X42050Y6904D01*
G01X39300Y10250D02*
G01X38900Y10250D01*
G01X38900Y11450D01*
G01X38942Y11492D01*
G01X41700Y11492D01*
G01X44457Y11492D01*
G01X44500Y11450D01*
G01X44500Y10250D01*
G01X44100Y10250D01*
G54D10*
G01X18750Y6950D02*
G01X18050Y6950D01*
G01X18050Y5950D01*
G01X18750Y5950D01*
G01X19350Y5950D02*
G01X20050Y5950D01*
G01X20050Y6950D01*
G01X19350Y6950D01*
G54D32*
G01X19388Y4845D02*
G01X18050Y4845D01*
G01X18050Y5554D01*
G01X19388Y5554D01*
G01X19388Y4845D01*
G54D10*
G01X9781Y12072D02*
G01X7419Y12072D01*
G01X7419Y6078D01*
G01X9781Y6078D01*
G01X9781Y12072D01*
G01X13200Y8650D02*
G01X13200Y9350D01*
G01X12200Y9350D01*
G01X12200Y8650D01*
G01X12200Y8050D02*
G01X12200Y7350D01*
G01X13200Y7350D01*
G01X13200Y8050D01*
G54D32*
G01X13566Y8011D02*
G01X13566Y9350D01*
G01X14275Y9350D01*
G01X14275Y8011D01*
G01X13566Y8011D01*
G54D10*
G01X32139Y11152D02*
G01X29488Y11152D01*
G01X29488Y7136D01*
G01X32448Y7136D01*
G01X32448Y11152D01*
G01X32139Y11152D01*
G54D33*
G01X34831Y12257D02*
G01X34311Y12257D01*
G01X34311Y11442D01*
G01X34831Y11442D01*
G01X35277Y12257D02*
G01X35796Y12257D01*
G01X35796Y11442D01*
G01X35277Y11442D01*
G01X34831Y11107D02*
G01X34311Y11107D01*
G01X34311Y10292D01*
G01X34831Y10292D01*
G01X35277Y11107D02*
G01X35796Y11107D01*
G01X35796Y10292D01*
G01X35277Y10292D01*
G54D32*
G01X40965Y14054D02*
G01X42303Y14054D01*
G01X42303Y13345D01*
G01X40965Y13345D01*
G01X40965Y14054D01*
G54D33*
G01X27168Y10192D02*
G01X27688Y10192D01*
G01X27688Y11007D01*
G01X27168Y11007D01*
G01X26722Y10192D02*
G01X26203Y10192D01*
G01X26203Y11007D01*
G01X26722Y11007D01*
G54D10*
G01X27688Y8600D02*
G01X27688Y9300D01*
G01X26688Y9300D01*
G01X26688Y8600D01*
G01X26688Y8000D02*
G01X26688Y7300D01*
G01X27688Y7300D01*
G01X27688Y8000D01*
G54D32*
G01X25495Y7961D02*
G01X25495Y9300D01*
G01X26204Y9300D01*
G01X26204Y7961D01*
G01X25495Y7961D01*
G54D33*
G01X14642Y8384D02*
G01X14642Y7864D01*
G01X15457Y7864D01*
G01X15457Y8384D01*
G01X14642Y8830D02*
G01X14642Y9350D01*
G01X15457Y9350D01*
G01X15457Y8830D01*
G54D10*
G01X4650Y4200D02*
G01X4650Y4900D01*
G01X3650Y4900D01*
G01X3650Y4200D01*
G01X3650Y3600D02*
G01X3650Y2900D01*
G01X4650Y2900D01*
G01X4650Y3600D01*
G54D32*
G01X5445Y3465D02*
G01X5445Y4803D01*
G01X6154Y4803D01*
G01X6154Y3465D01*
G01X5445Y3465D01*
G54D10*
G01X2336Y2532D02*
G01X-25Y2532D01*
G01X-25Y2532D02*
G01X-25Y5367D01*
G01X-25Y5367D02*
G01X2336Y5367D01*
G01X2340Y2530D02*
G01X2340Y3050D01*
G01X1901Y3050D01*
G01X1901Y4750D01*
G01X2340Y4750D01*
G01X2340Y5359D01*
G54D33*
G01X46081Y14657D02*
G01X45561Y14657D01*
G01X45561Y13842D01*
G01X46081Y13842D01*
G01X46527Y14657D02*
G01X47046Y14657D01*
G01X47046Y13842D01*
G01X46527Y13842D01*
G01X46081Y9182D02*
G01X45561Y9182D01*
G01X45561Y8367D01*
G01X46081Y8367D01*
G01X46527Y9182D02*
G01X47046Y9182D01*
G01X47046Y8367D01*
G01X46527Y8367D01*
G01X46081Y3707D02*
G01X45561Y3707D01*
G01X45561Y2892D01*
G01X46081Y2892D01*
G01X46527Y3707D02*
G01X47046Y3707D01*
G01X47046Y2892D01*
G01X46527Y2892D01*
G54D10*
G01X21659Y12720D02*
G01X21659Y14279D01*
G54D33*
G01X20957Y13722D02*
G01X20957Y14242D01*
G01X20142Y14242D01*
G01X20142Y13722D01*
G01X20957Y13277D02*
G01X20957Y12757D01*
G01X20142Y12757D01*
G01X20142Y13277D01*
G54D34*
G01X0Y0D02*
G01X12047Y0D01*
G01X0Y0D02*
G01X0Y17322D01*
G01X12047Y0D02*
G01X12047Y17322D01*
G01X0Y17322D02*
G01X12047Y17322D01*
G01X12100Y0D02*
G01X24147Y0D01*
G01X12100Y0D02*
G01X12100Y17322D01*
G01X24147Y0D02*
G01X24147Y17322D01*
G01X12100Y17322D02*
G01X24147Y17322D01*
G01X24200Y0D02*
G01X36247Y0D01*
G01X24200Y0D02*
G01X24200Y17322D01*
G01X36247Y0D02*
G01X36247Y17322D01*
G01X24200Y17322D02*
G01X36247Y17322D01*
G01X36300Y0D02*
G01X48347Y0D01*
G01X36300Y0D02*
G01X36300Y17322D01*
G01X48347Y0D02*
G01X48347Y17322D01*
G01X36300Y17322D02*
G01X48347Y17322D01*
G54D11*
G01X18749Y10999D02*
G01X18749Y10693D01*
G01X18769Y10631D01*
G01X18810Y10590D01*
G01X18872Y10570D01*
G01X18913Y10570D01*
G01X18974Y10590D01*
G01X19015Y10631D01*
G01X19035Y10693D01*
G01X19035Y10999D01*
G01X19170Y10918D02*
G01X19211Y10938D01*
G01X19273Y10999D01*
G01X19273Y10570D01*
G01X42819Y12135D02*
G01X42983Y11706D01*
G01X43146Y12135D02*
G01X42983Y11706D01*
G01X43281Y12054D02*
G01X43322Y12074D01*
G01X43384Y12135D01*
G01X43384Y11706D01*
G01X17206Y6348D02*
G01X17185Y6389D01*
G01X17144Y6430D01*
G01X17105Y6450D01*
G01X17022Y6450D01*
G01X16981Y6430D01*
G01X16940Y6389D01*
G01X16919Y6348D01*
G01X16900Y6287D01*
G01X16900Y6185D01*
G01X16919Y6123D01*
G01X16940Y6082D01*
G01X16981Y6041D01*
G01X17022Y6021D01*
G01X17105Y6021D01*
G01X17144Y6041D01*
G01X17185Y6082D01*
G01X17206Y6123D01*
G01X17342Y6369D02*
G01X17382Y6389D01*
G01X17443Y6450D01*
G01X17443Y6021D01*
G01X17702Y6450D02*
G01X17639Y6430D01*
G01X17600Y6369D01*
G01X17578Y6266D01*
G01X17578Y6205D01*
G01X17600Y6103D01*
G01X17639Y6041D01*
G01X17702Y6021D01*
G01X17743Y6021D01*
G01X17803Y6041D01*
G01X17844Y6103D01*
G01X17864Y6205D01*
G01X17864Y6266D01*
G01X17844Y6369D01*
G01X17803Y6430D01*
G01X17743Y6450D01*
G01X17702Y6450D01*
G01X17360Y5146D02*
G01X17339Y5187D01*
G01X17298Y5228D01*
G01X17258Y5249D01*
G01X17176Y5249D01*
G01X17135Y5228D01*
G01X17094Y5187D01*
G01X17073Y5146D01*
G01X17053Y5085D01*
G01X17053Y4983D01*
G01X17073Y4921D01*
G01X17094Y4881D01*
G01X17135Y4840D01*
G01X17176Y4819D01*
G01X17258Y4819D01*
G01X17298Y4840D01*
G01X17339Y4881D01*
G01X17360Y4921D01*
G01X17495Y5167D02*
G01X17536Y5187D01*
G01X17597Y5249D01*
G01X17597Y4819D01*
G01X17732Y5167D02*
G01X17773Y5187D01*
G01X17834Y5249D01*
G01X17834Y4819D01*
G01X8199Y12700D02*
G01X8199Y12393D01*
G01X8219Y12332D01*
G01X8260Y12291D01*
G01X8322Y12271D01*
G01X8363Y12271D01*
G01X8424Y12291D01*
G01X8465Y12332D01*
G01X8485Y12393D01*
G01X8485Y12700D01*
G01X8661Y12700D02*
G01X8886Y12700D01*
G01X8764Y12536D01*
G01X8825Y12536D01*
G01X8866Y12516D01*
G01X8886Y12496D01*
G01X8907Y12434D01*
G01X8907Y12393D01*
G01X8886Y12332D01*
G01X8845Y12291D01*
G01X8784Y12271D01*
G01X8723Y12271D01*
G01X8661Y12291D01*
G01X8641Y12311D01*
G01X8620Y12352D01*
G01X12451Y9878D02*
G01X12430Y9919D01*
G01X12389Y9960D01*
G01X12349Y9980D01*
G01X12267Y9980D01*
G01X12226Y9960D01*
G01X12185Y9919D01*
G01X12164Y9878D01*
G01X12144Y9817D01*
G01X12144Y9715D01*
G01X12164Y9653D01*
G01X12185Y9612D01*
G01X12226Y9571D01*
G01X12267Y9551D01*
G01X12349Y9551D01*
G01X12389Y9571D01*
G01X12430Y9612D01*
G01X12451Y9653D01*
G01X12627Y9980D02*
G01X12852Y9980D01*
G01X12729Y9817D01*
G01X12790Y9817D01*
G01X12831Y9796D01*
G01X12852Y9776D01*
G01X12872Y9715D01*
G01X12872Y9674D01*
G01X12852Y9612D01*
G01X12811Y9571D01*
G01X12749Y9551D01*
G01X12688Y9551D01*
G01X12627Y9571D01*
G01X12606Y9592D01*
G01X12586Y9633D01*
G01X13007Y9899D02*
G01X13048Y9919D01*
G01X13109Y9980D01*
G01X13109Y9551D01*
G01X13728Y9893D02*
G01X13707Y9934D01*
G01X13666Y9975D01*
G01X13626Y9996D01*
G01X13544Y9996D01*
G01X13503Y9975D01*
G01X13462Y9934D01*
G01X13441Y9893D01*
G01X13421Y9832D01*
G01X13421Y9730D01*
G01X13441Y9668D01*
G01X13462Y9628D01*
G01X13503Y9587D01*
G01X13544Y9566D01*
G01X13626Y9566D01*
G01X13666Y9587D01*
G01X13707Y9628D01*
G01X13728Y9668D01*
G01X13904Y9996D02*
G01X14129Y9996D01*
G01X14006Y9832D01*
G01X14067Y9832D01*
G01X14108Y9812D01*
G01X14129Y9791D01*
G01X14149Y9730D01*
G01X14149Y9689D01*
G01X14129Y9628D01*
G01X14088Y9587D01*
G01X14026Y9566D01*
G01X13965Y9566D01*
G01X13904Y9587D01*
G01X13883Y9607D01*
G01X13863Y9648D01*
G01X14305Y9893D02*
G01X14305Y9914D01*
G01X14325Y9955D01*
G01X14346Y9975D01*
G01X14386Y9996D01*
G01X14468Y9996D01*
G01X14509Y9975D01*
G01X14530Y9955D01*
G01X14550Y9914D01*
G01X14550Y9873D01*
G01X14530Y9832D01*
G01X14489Y9771D01*
G01X14284Y9566D01*
G01X14571Y9566D01*
G01X30600Y11749D02*
G01X30600Y11443D01*
G01X30620Y11381D01*
G01X30661Y11340D01*
G01X30723Y11320D01*
G01X30764Y11320D01*
G01X30825Y11340D01*
G01X30866Y11381D01*
G01X30886Y11443D01*
G01X30886Y11749D01*
G01X31042Y11647D02*
G01X31042Y11668D01*
G01X31062Y11708D01*
G01X31083Y11729D01*
G01X31124Y11749D01*
G01X31205Y11749D01*
G01X31246Y11729D01*
G01X31267Y11708D01*
G01X31287Y11668D01*
G01X31287Y11627D01*
G01X31267Y11586D01*
G01X31226Y11524D01*
G01X31021Y11320D01*
G01X31308Y11320D01*
G01X36100Y11950D02*
G01X36100Y11520D01*
G01X36100Y11950D02*
G01X36284Y11950D01*
G01X36344Y11929D01*
G01X36365Y11909D01*
G01X36385Y11868D01*
G01X36385Y11827D01*
G01X36365Y11786D01*
G01X36344Y11766D01*
G01X36284Y11745D01*
G01X36100Y11745D01*
G01X36243Y11745D02*
G01X36385Y11520D01*
G01X36542Y11848D02*
G01X36542Y11868D01*
G01X36561Y11909D01*
G01X36582Y11929D01*
G01X36623Y11950D01*
G01X36705Y11950D01*
G01X36746Y11929D01*
G01X36767Y11909D01*
G01X36786Y11868D01*
G01X36786Y11827D01*
G01X36767Y11786D01*
G01X36726Y11725D01*
G01X36521Y11520D01*
G01X36807Y11520D01*
G01X36984Y11950D02*
G01X37209Y11950D01*
G01X37085Y11786D01*
G01X37147Y11786D01*
G01X37188Y11766D01*
G01X37209Y11745D01*
G01X37229Y11684D01*
G01X37229Y11643D01*
G01X37209Y11582D01*
G01X37168Y11541D01*
G01X37106Y11520D01*
G01X37044Y11520D01*
G01X36984Y11541D01*
G01X36963Y11561D01*
G01X36943Y11602D01*
G01X36150Y10800D02*
G01X36150Y10370D01*
G01X36150Y10800D02*
G01X36334Y10800D01*
G01X36394Y10779D01*
G01X36415Y10759D01*
G01X36435Y10718D01*
G01X36435Y10677D01*
G01X36415Y10636D01*
G01X36394Y10616D01*
G01X36334Y10595D01*
G01X36150Y10595D01*
G01X36293Y10595D02*
G01X36435Y10370D01*
G01X36592Y10698D02*
G01X36592Y10718D01*
G01X36611Y10759D01*
G01X36632Y10779D01*
G01X36673Y10800D01*
G01X36755Y10800D01*
G01X36796Y10779D01*
G01X36817Y10759D01*
G01X36836Y10718D01*
G01X36836Y10677D01*
G01X36817Y10636D01*
G01X36776Y10575D01*
G01X36571Y10370D01*
G01X36857Y10370D01*
G01X37013Y10698D02*
G01X37013Y10718D01*
G01X37034Y10759D01*
G01X37054Y10779D01*
G01X37094Y10800D01*
G01X37177Y10800D01*
G01X37218Y10779D01*
G01X37238Y10759D01*
G01X37259Y10718D01*
G01X37259Y10677D01*
G01X37238Y10636D01*
G01X37197Y10575D01*
G01X36993Y10370D01*
G01X37279Y10370D01*
G01X41256Y14647D02*
G01X41235Y14688D01*
G01X41194Y14729D01*
G01X41155Y14750D01*
G01X41072Y14750D01*
G01X41031Y14729D01*
G01X40990Y14688D01*
G01X40969Y14647D01*
G01X40950Y14586D01*
G01X40950Y14484D01*
G01X40969Y14422D01*
G01X40990Y14382D01*
G01X41031Y14341D01*
G01X41072Y14320D01*
G01X41155Y14320D01*
G01X41194Y14341D01*
G01X41235Y14382D01*
G01X41256Y14422D01*
G01X41411Y14647D02*
G01X41411Y14668D01*
G01X41432Y14709D01*
G01X41452Y14729D01*
G01X41493Y14750D01*
G01X41576Y14750D01*
G01X41617Y14729D01*
G01X41636Y14709D01*
G01X41657Y14668D01*
G01X41657Y14627D01*
G01X41636Y14586D01*
G01X41596Y14525D01*
G01X41392Y14320D01*
G01X41677Y14320D01*
G01X41854Y14750D02*
G01X42079Y14750D01*
G01X41956Y14586D01*
G01X42018Y14586D01*
G01X42059Y14566D01*
G01X42079Y14545D01*
G01X42100Y14484D01*
G01X42100Y14443D01*
G01X42079Y14382D01*
G01X42038Y14341D01*
G01X41977Y14320D01*
G01X41914Y14320D01*
G01X41854Y14341D01*
G01X41834Y14361D01*
G01X41813Y14402D01*
G01X26400Y11649D02*
G01X26400Y11219D01*
G01X26400Y11649D02*
G01X26584Y11649D01*
G01X26644Y11628D01*
G01X26665Y11608D01*
G01X26685Y11567D01*
G01X26685Y11526D01*
G01X26665Y11485D01*
G01X26644Y11465D01*
G01X26584Y11444D01*
G01X26400Y11444D01*
G01X26543Y11444D02*
G01X26685Y11219D01*
G01X26842Y11547D02*
G01X26842Y11567D01*
G01X26861Y11608D01*
G01X26882Y11628D01*
G01X26923Y11649D01*
G01X27005Y11649D01*
G01X27046Y11628D01*
G01X27067Y11608D01*
G01X27086Y11567D01*
G01X27086Y11526D01*
G01X27067Y11485D01*
G01X27026Y11424D01*
G01X26821Y11219D01*
G01X27107Y11219D01*
G01X27243Y11567D02*
G01X27284Y11588D01*
G01X27344Y11649D01*
G01X27344Y11219D01*
G01X26945Y9798D02*
G01X26924Y9839D01*
G01X26883Y9880D01*
G01X26843Y9900D01*
G01X26761Y9900D01*
G01X26720Y9880D01*
G01X26679Y9839D01*
G01X26658Y9798D01*
G01X26638Y9737D01*
G01X26638Y9635D01*
G01X26658Y9573D01*
G01X26679Y9532D01*
G01X26720Y9491D01*
G01X26761Y9471D01*
G01X26843Y9471D01*
G01X26883Y9491D01*
G01X26924Y9532D01*
G01X26945Y9573D01*
G01X27100Y9798D02*
G01X27100Y9819D01*
G01X27121Y9860D01*
G01X27141Y9880D01*
G01X27182Y9900D01*
G01X27264Y9900D01*
G01X27305Y9880D01*
G01X27325Y9860D01*
G01X27346Y9819D01*
G01X27346Y9778D01*
G01X27325Y9737D01*
G01X27284Y9675D01*
G01X27080Y9471D01*
G01X27366Y9471D01*
G01X27501Y9819D02*
G01X27542Y9839D01*
G01X27603Y9900D01*
G01X27603Y9471D01*
G01X25506Y9843D02*
G01X25485Y9884D01*
G01X25444Y9925D01*
G01X25404Y9946D01*
G01X25322Y9946D01*
G01X25281Y9925D01*
G01X25240Y9884D01*
G01X25219Y9843D01*
G01X25199Y9782D01*
G01X25199Y9680D01*
G01X25219Y9618D01*
G01X25240Y9578D01*
G01X25281Y9537D01*
G01X25322Y9516D01*
G01X25404Y9516D01*
G01X25444Y9537D01*
G01X25485Y9578D01*
G01X25506Y9618D01*
G01X25661Y9843D02*
G01X25661Y9864D01*
G01X25682Y9905D01*
G01X25702Y9925D01*
G01X25743Y9946D01*
G01X25825Y9946D01*
G01X25866Y9925D01*
G01X25886Y9905D01*
G01X25907Y9864D01*
G01X25907Y9823D01*
G01X25886Y9782D01*
G01X25845Y9721D01*
G01X25641Y9516D01*
G01X25927Y9516D01*
G01X26083Y9843D02*
G01X26083Y9864D01*
G01X26103Y9905D01*
G01X26124Y9925D01*
G01X26164Y9946D01*
G01X26246Y9946D01*
G01X26287Y9925D01*
G01X26308Y9905D01*
G01X26328Y9864D01*
G01X26328Y9823D01*
G01X26308Y9782D01*
G01X26267Y9721D01*
G01X26062Y9516D01*
G01X26349Y9516D01*
G01X14750Y10002D02*
G01X14750Y9572D01*
G01X14750Y10002D02*
G01X14934Y10002D01*
G01X14995Y9981D01*
G01X15016Y9961D01*
G01X15036Y9920D01*
G01X15036Y9879D01*
G01X15016Y9838D01*
G01X14995Y9818D01*
G01X14934Y9797D01*
G01X14750Y9797D01*
G01X14893Y9797D02*
G01X15036Y9572D01*
G01X15212Y10002D02*
G01X15437Y10002D01*
G01X15315Y9838D01*
G01X15376Y9838D01*
G01X15417Y9818D01*
G01X15437Y9797D01*
G01X15458Y9736D01*
G01X15458Y9695D01*
G01X15437Y9634D01*
G01X15396Y9593D01*
G01X15335Y9572D01*
G01X15274Y9572D01*
G01X15212Y9593D01*
G01X15192Y9613D01*
G01X15171Y9654D01*
G01X15593Y9920D02*
G01X15634Y9941D01*
G01X15695Y10002D01*
G01X15695Y9572D01*
G01X3901Y5493D02*
G01X3880Y5534D01*
G01X3839Y5575D01*
G01X3799Y5595D01*
G01X3717Y5595D01*
G01X3676Y5575D01*
G01X3635Y5534D01*
G01X3614Y5493D01*
G01X3594Y5432D01*
G01X3594Y5330D01*
G01X3614Y5268D01*
G01X3635Y5227D01*
G01X3676Y5186D01*
G01X3717Y5166D01*
G01X3799Y5166D01*
G01X3839Y5186D01*
G01X3880Y5227D01*
G01X3901Y5268D01*
G01X4036Y5595D02*
G01X4036Y5289D01*
G01X4056Y5227D01*
G01X4097Y5186D01*
G01X4159Y5166D01*
G01X4199Y5166D01*
G01X4261Y5186D01*
G01X4302Y5227D01*
G01X4322Y5289D01*
G01X4322Y5595D01*
G01X4478Y5493D02*
G01X4478Y5514D01*
G01X4498Y5555D01*
G01X4519Y5575D01*
G01X4559Y5595D01*
G01X4641Y5595D01*
G01X4682Y5575D01*
G01X4703Y5555D01*
G01X4723Y5514D01*
G01X4723Y5473D01*
G01X4703Y5432D01*
G01X4662Y5370D01*
G01X4457Y5166D01*
G01X4744Y5166D01*
G01X5652Y5327D02*
G01X5631Y5368D01*
G01X5590Y5409D01*
G01X5550Y5430D01*
G01X5468Y5430D01*
G01X5427Y5409D01*
G01X5386Y5368D01*
G01X5365Y5327D01*
G01X5345Y5266D01*
G01X5345Y5164D01*
G01X5365Y5102D01*
G01X5386Y5062D01*
G01X5427Y5021D01*
G01X5468Y5000D01*
G01X5550Y5000D01*
G01X5590Y5021D01*
G01X5631Y5062D01*
G01X5652Y5102D01*
G01X5787Y5430D02*
G01X5787Y5123D01*
G01X5807Y5062D01*
G01X5848Y5021D01*
G01X5910Y5000D01*
G01X5950Y5000D01*
G01X6012Y5021D01*
G01X6053Y5062D01*
G01X6073Y5123D01*
G01X6073Y5430D01*
G01X6208Y5348D02*
G01X6249Y5368D01*
G01X6310Y5430D01*
G01X6310Y5000D01*
G01X1261Y2491D02*
G01X1261Y2185D01*
G01X1280Y2123D01*
G01X1321Y2082D01*
G01X1384Y2062D01*
G01X1425Y2062D01*
G01X1486Y2082D01*
G01X1526Y2123D01*
G01X1546Y2185D01*
G01X1546Y2491D01*
G01X1969Y2430D02*
G01X1928Y2471D01*
G01X1865Y2491D01*
G01X1784Y2491D01*
G01X1723Y2471D01*
G01X1682Y2430D01*
G01X1682Y2389D01*
G01X1703Y2348D01*
G01X1723Y2328D01*
G01X1763Y2307D01*
G01X1886Y2266D01*
G01X1928Y2246D01*
G01X1948Y2226D01*
G01X1969Y2185D01*
G01X1969Y2123D01*
G01X1928Y2082D01*
G01X1865Y2062D01*
G01X1784Y2062D01*
G01X1723Y2082D01*
G01X1682Y2123D01*
G01X2103Y2491D02*
G01X2103Y2062D01*
G01X2103Y2491D02*
G01X2288Y2491D01*
G01X2348Y2471D01*
G01X2369Y2451D01*
G01X2390Y2410D01*
G01X2390Y2369D01*
G01X2369Y2328D01*
G01X2348Y2307D01*
G01X2288Y2287D01*
G01X2103Y2287D02*
G01X2288Y2287D01*
G01X2348Y2266D01*
G01X2369Y2246D01*
G01X2390Y2205D01*
G01X2390Y2144D01*
G01X2369Y2103D01*
G01X2348Y2082D01*
G01X2288Y2062D01*
G01X2103Y2062D01*
G01X2525Y2410D02*
G01X2565Y2430D01*
G01X2626Y2491D01*
G01X2626Y2062D01*
G01X46000Y15250D02*
G01X46000Y14820D01*
G01X46000Y15250D02*
G01X46184Y15250D01*
G01X46245Y15229D01*
G01X46266Y15209D01*
G01X46286Y15168D01*
G01X46286Y15127D01*
G01X46266Y15086D01*
G01X46245Y15066D01*
G01X46184Y15045D01*
G01X46000Y15045D01*
G01X46143Y15045D02*
G01X46286Y14820D01*
G01X46708Y15189D02*
G01X46667Y15229D01*
G01X46605Y15250D01*
G01X46524Y15250D01*
G01X46462Y15229D01*
G01X46421Y15189D01*
G01X46421Y15148D01*
G01X46442Y15107D01*
G01X46462Y15086D01*
G01X46503Y15066D01*
G01X46626Y15025D01*
G01X46667Y15004D01*
G01X46687Y14984D01*
G01X46708Y14943D01*
G01X46708Y14882D01*
G01X46667Y14841D01*
G01X46605Y14820D01*
G01X46524Y14820D01*
G01X46462Y14841D01*
G01X46421Y14882D01*
G01X46843Y15168D02*
G01X46884Y15189D01*
G01X46945Y15250D01*
G01X46945Y14820D01*
G01X45850Y9875D02*
G01X45850Y9445D01*
G01X45850Y9875D02*
G01X46034Y9875D01*
G01X46095Y9854D01*
G01X46116Y9834D01*
G01X46136Y9793D01*
G01X46136Y9752D01*
G01X46116Y9711D01*
G01X46095Y9691D01*
G01X46034Y9670D01*
G01X45850Y9670D01*
G01X45993Y9670D02*
G01X46136Y9445D01*
G01X46558Y9814D02*
G01X46517Y9854D01*
G01X46455Y9875D01*
G01X46374Y9875D01*
G01X46312Y9854D01*
G01X46271Y9814D01*
G01X46271Y9773D01*
G01X46292Y9732D01*
G01X46312Y9711D01*
G01X46353Y9691D01*
G01X46476Y9650D01*
G01X46517Y9629D01*
G01X46537Y9609D01*
G01X46558Y9568D01*
G01X46558Y9507D01*
G01X46517Y9466D01*
G01X46455Y9445D01*
G01X46374Y9445D01*
G01X46312Y9466D01*
G01X46271Y9507D01*
G01X46713Y9773D02*
G01X46713Y9793D01*
G01X46734Y9834D01*
G01X46754Y9854D01*
G01X46795Y9875D01*
G01X46877Y9875D01*
G01X46918Y9854D01*
G01X46938Y9834D01*
G01X46959Y9793D01*
G01X46959Y9752D01*
G01X46938Y9711D01*
G01X46897Y9650D01*
G01X46693Y9445D01*
G01X46979Y9445D01*
G01X45900Y4300D02*
G01X45900Y3870D01*
G01X45900Y4300D02*
G01X46084Y4300D01*
G01X46145Y4279D01*
G01X46166Y4259D01*
G01X46186Y4218D01*
G01X46186Y4177D01*
G01X46166Y4136D01*
G01X46145Y4116D01*
G01X46084Y4095D01*
G01X45900Y4095D01*
G01X46043Y4095D02*
G01X46186Y3870D01*
G01X46608Y4239D02*
G01X46567Y4279D01*
G01X46505Y4300D01*
G01X46424Y4300D01*
G01X46362Y4279D01*
G01X46321Y4239D01*
G01X46321Y4198D01*
G01X46342Y4157D01*
G01X46362Y4136D01*
G01X46403Y4116D01*
G01X46526Y4075D01*
G01X46567Y4054D01*
G01X46587Y4034D01*
G01X46608Y3993D01*
G01X46608Y3932D01*
G01X46567Y3891D01*
G01X46505Y3870D01*
G01X46424Y3870D01*
G01X46362Y3891D01*
G01X46321Y3932D01*
G01X46784Y4300D02*
G01X47009Y4300D01*
G01X46886Y4136D01*
G01X46947Y4136D01*
G01X46988Y4116D01*
G01X47009Y4095D01*
G01X47029Y4034D01*
G01X47029Y3993D01*
G01X47009Y3932D01*
G01X46968Y3891D01*
G01X46906Y3870D01*
G01X46845Y3870D01*
G01X46784Y3891D01*
G01X46763Y3911D01*
G01X46743Y3952D01*
G01X21900Y15250D02*
G01X21900Y14943D01*
G01X21919Y14881D01*
G01X21960Y14840D01*
G01X22022Y14820D01*
G01X22064Y14820D01*
G01X22125Y14840D01*
G01X22165Y14881D01*
G01X22185Y14943D01*
G01X22185Y15250D01*
G01X22423Y15250D02*
G01X22361Y15229D01*
G01X22342Y15188D01*
G01X22342Y15147D01*
G01X22361Y15106D01*
G01X22402Y15086D01*
G01X22485Y15065D01*
G01X22546Y15045D01*
G01X22586Y15004D01*
G01X22607Y14963D01*
G01X22607Y14902D01*
G01X22586Y14861D01*
G01X22567Y14840D01*
G01X22505Y14820D01*
G01X22423Y14820D01*
G01X22361Y14840D01*
G01X22342Y14861D01*
G01X22321Y14902D01*
G01X22321Y14963D01*
G01X22342Y15004D01*
G01X22382Y15045D01*
G01X22443Y15065D01*
G01X22526Y15086D01*
G01X22567Y15106D01*
G01X22586Y15147D01*
G01X22586Y15188D01*
G01X22567Y15229D01*
G01X22505Y15250D01*
G01X22423Y15250D01*
G01X20095Y14904D02*
G01X20095Y14474D01*
G01X20095Y14904D02*
G01X20279Y14904D01*
G01X20340Y14883D01*
G01X20361Y14863D01*
G01X20381Y14822D01*
G01X20381Y14781D01*
G01X20361Y14740D01*
G01X20340Y14720D01*
G01X20279Y14699D01*
G01X20095Y14699D01*
G01X20238Y14699D02*
G01X20381Y14474D01*
G01X20619Y14904D02*
G01X20557Y14883D01*
G01X20537Y14843D01*
G01X20537Y14802D01*
G01X20557Y14761D01*
G01X20598Y14740D01*
G01X20680Y14720D01*
G01X20741Y14699D01*
G01X20782Y14658D01*
G01X20803Y14618D01*
G01X20803Y14556D01*
G01X20782Y14515D01*
G01X20762Y14495D01*
G01X20700Y14474D01*
G01X20619Y14474D01*
G01X20557Y14495D01*
G01X20537Y14515D01*
G01X20516Y14556D01*
G01X20516Y14618D01*
G01X20537Y14658D01*
G01X20578Y14699D01*
G01X20639Y14720D01*
G01X20721Y14740D01*
G01X20762Y14761D01*
G01X20782Y14802D01*
G01X20782Y14843D01*
G01X20762Y14883D01*
G01X20700Y14904D01*
G01X20619Y14904D01*
G01X20938Y14822D02*
G01X20979Y14843D01*
G01X21040Y14904D01*
G01X21040Y14474D01*
G01X5800Y15950D02*
G01X5800Y15643D01*
G01X5819Y15582D01*
G01X5860Y15541D01*
G01X5922Y15521D01*
G01X5964Y15521D01*
G01X6025Y15541D01*
G01X6065Y15582D01*
G01X6085Y15643D01*
G01X6085Y15950D01*
G01X6426Y15950D02*
G01X6221Y15664D01*
G01X6527Y15664D01*
G01X6426Y15950D02*
G01X6426Y15521D01*
G01X17800Y15950D02*
G01X17800Y15643D01*
G01X17819Y15582D01*
G01X17860Y15541D01*
G01X17922Y15521D01*
G01X17964Y15521D01*
G01X18025Y15541D01*
G01X18065Y15582D01*
G01X18085Y15643D01*
G01X18085Y15950D01*
G01X18467Y15950D02*
G01X18261Y15950D01*
G01X18242Y15766D01*
G01X18261Y15787D01*
G01X18323Y15807D01*
G01X18385Y15807D01*
G01X18446Y15787D01*
G01X18486Y15746D01*
G01X18507Y15684D01*
G01X18507Y15643D01*
G01X18486Y15582D01*
G01X18446Y15541D01*
G01X18385Y15521D01*
G01X18323Y15521D01*
G01X18261Y15541D01*
G01X18242Y15562D01*
G01X18221Y15603D01*
G01X30000Y15850D02*
G01X30000Y15543D01*
G01X30019Y15482D01*
G01X30060Y15441D01*
G01X30122Y15421D01*
G01X30164Y15421D01*
G01X30225Y15441D01*
G01X30265Y15482D01*
G01X30285Y15543D01*
G01X30285Y15850D01*
G01X30667Y15789D02*
G01X30646Y15830D01*
G01X30585Y15850D01*
G01X30543Y15850D01*
G01X30482Y15830D01*
G01X30442Y15768D01*
G01X30421Y15666D01*
G01X30421Y15564D01*
G01X30442Y15482D01*
G01X30482Y15441D01*
G01X30543Y15421D01*
G01X30564Y15421D01*
G01X30626Y15441D01*
G01X30667Y15482D01*
G01X30686Y15543D01*
G01X30686Y15564D01*
G01X30667Y15625D01*
G01X30626Y15666D01*
G01X30564Y15687D01*
G01X30543Y15687D01*
G01X30482Y15666D01*
G01X30442Y15625D01*
G01X30421Y15564D01*
G01X42150Y15850D02*
G01X42150Y15543D01*
G01X42169Y15482D01*
G01X42210Y15441D01*
G01X42272Y15421D01*
G01X42314Y15421D01*
G01X42375Y15441D01*
G01X42415Y15482D01*
G01X42435Y15543D01*
G01X42435Y15850D01*
G01X42857Y15850D02*
G01X42652Y15421D01*
G01X42571Y15850D02*
G01X42857Y15850D01*
G54D13*
G01X21100Y3354D02*
G01X21100Y2399D01*
G01X21100Y3354D02*
G01X21463Y2399D01*
G01X21827Y3354D02*
G01X21463Y2399D01*
G01X21827Y3354D02*
G01X21827Y2399D01*
G01X22127Y3354D02*
G01X22172Y3308D01*
G01X22218Y3354D01*
G01X22172Y3399D01*
G01X22127Y3354D01*
G01X22172Y3036D02*
G01X22172Y2399D01*
G01X22518Y3036D02*
G01X22518Y2399D01*
G01X22518Y2854D02*
G01X22654Y2990D01*
G01X22745Y3036D01*
G01X22881Y3036D01*
G01X22972Y2990D01*
G01X23018Y2854D01*
G01X23018Y2399D01*
G01X23318Y3354D02*
G01X23363Y3308D01*
G01X23409Y3354D01*
G01X23363Y3399D01*
G01X23318Y3354D01*
G01X23363Y3036D02*
G01X23363Y2399D01*
G01X24390Y3127D02*
G01X24345Y3218D01*
G01X24254Y3308D01*
G01X24163Y3354D01*
G01X23981Y3354D01*
G01X23890Y3308D01*
G01X23800Y3218D01*
G01X23754Y3127D01*
G01X23709Y2990D01*
G01X23709Y2763D01*
G01X23754Y2627D01*
G01X23800Y2536D01*
G01X23890Y2445D01*
G01X23981Y2399D01*
G01X24163Y2399D01*
G01X24254Y2445D01*
G01X24345Y2536D01*
G01X24390Y2627D01*
G01X24690Y3354D02*
G01X24690Y2399D01*
G01X25218Y3036D02*
G01X25127Y2990D01*
G01X25036Y2899D01*
G01X24990Y2763D01*
G01X24990Y2672D01*
G01X25036Y2536D01*
G01X25127Y2445D01*
G01X25218Y2399D01*
G01X25354Y2399D01*
G01X25445Y2445D01*
G01X25536Y2536D01*
G01X25581Y2672D01*
G01X25581Y2763D01*
G01X25536Y2899D01*
G01X25445Y2990D01*
G01X25354Y3036D01*
G01X25218Y3036D01*
G01X26427Y2899D02*
G01X26336Y2990D01*
G01X26245Y3036D01*
G01X26109Y3036D01*
G01X26018Y2990D01*
G01X25927Y2899D01*
G01X25881Y2763D01*
G01X25881Y2672D01*
G01X25927Y2536D01*
G01X26018Y2445D01*
G01X26109Y2399D01*
G01X26245Y2399D01*
G01X26336Y2445D01*
G01X26427Y2536D01*
G01X26727Y3354D02*
G01X26727Y2399D01*
G01X27181Y3036D02*
G01X26727Y2581D01*
G01X26909Y2763D02*
G01X27227Y2399D01*
G54D36*
G01X21127Y1950D02*
G01X21127Y1663D01*
G01X21127Y1950D02*
G01X21250Y1950D01*
G01X21291Y1936D01*
G01X21304Y1922D01*
G01X21318Y1895D01*
G01X21318Y1868D01*
G01X21304Y1840D01*
G01X21291Y1827D01*
G01X21250Y1813D01*
G01X21127Y1813D01*
G01X21222Y1813D02*
G01X21318Y1663D01*
G01X21408Y1772D02*
G01X21571Y1772D01*
G01X21571Y1800D01*
G01X21558Y1827D01*
G01X21544Y1840D01*
G01X21517Y1854D01*
G01X21476Y1854D01*
G01X21449Y1840D01*
G01X21421Y1813D01*
G01X21408Y1772D01*
G01X21408Y1745D01*
G01X21421Y1704D01*
G01X21449Y1677D01*
G01X21476Y1663D01*
G01X21517Y1663D01*
G01X21544Y1677D01*
G01X21571Y1704D01*
G01X21661Y1854D02*
G01X21743Y1663D01*
G01X21825Y1854D02*
G01X21743Y1663D01*
G01X21915Y1568D02*
G01X22161Y1568D01*
G01X22251Y1895D02*
G01X22278Y1909D01*
G01X22319Y1950D01*
G01X22319Y1663D01*
G01X22586Y1854D02*
G01X22572Y1813D01*
G01X22545Y1786D01*
G01X22504Y1772D01*
G01X22491Y1772D01*
G01X22450Y1786D01*
G01X22422Y1813D01*
G01X22409Y1854D01*
G01X22409Y1868D01*
G01X22422Y1909D01*
G01X22450Y1936D01*
G01X22491Y1950D01*
G01X22504Y1950D01*
G01X22545Y1936D01*
G01X22572Y1909D01*
G01X22586Y1854D01*
G01X22586Y1786D01*
G01X22572Y1718D01*
G01X22545Y1677D01*
G01X22504Y1663D01*
G01X22477Y1663D01*
G01X22436Y1677D01*
G01X22422Y1704D01*
G01X22758Y1950D02*
G01X22717Y1936D01*
G01X22690Y1895D01*
G01X22676Y1827D01*
G01X22676Y1786D01*
G01X22690Y1718D01*
G01X22717Y1677D01*
G01X22758Y1663D01*
G01X22785Y1663D01*
G01X22826Y1677D01*
G01X22853Y1718D01*
G01X22867Y1786D01*
G01X22867Y1827D01*
G01X22853Y1895D01*
G01X22826Y1936D01*
G01X22785Y1950D01*
G01X22758Y1950D01*
G01X23093Y1950D02*
G01X22957Y1759D01*
G01X23161Y1759D01*
G01X23093Y1950D02*
G01X23093Y1663D01*
G01X23251Y1895D02*
G01X23279Y1909D01*
G01X23320Y1950D01*
G01X23320Y1663D01*
G01X23601Y1950D02*
G01X23464Y1663D01*
G01X23410Y1950D02*
G01X23601Y1950D01*
G01X23691Y1950D02*
G01X23691Y1663D01*
G01X23691Y1950D02*
G01X23813Y1950D01*
G01X23854Y1936D01*
G01X23868Y1922D01*
G01X23881Y1895D01*
G01X23881Y1868D01*
G01X23868Y1840D01*
G01X23854Y1827D01*
G01X23813Y1813D01*
G01X23691Y1813D02*
G01X23813Y1813D01*
G01X23854Y1800D01*
G01X23868Y1786D01*
G01X23881Y1759D01*
G01X23881Y1718D01*
G01X23868Y1690D01*
G01X23854Y1677D01*
G01X23813Y1663D01*
G01X23691Y1663D01*
G54D10*
G75*
G01X19154Y10407D02*
G02X18724Y10407I-215J0D01*
G01*
G54D11*
G75*
G01X41700Y5807D02*
G03X41650Y5808I32J2842D01*
G01*
G54D12*
G75*
G01X7901Y11698D02*
G03X7901Y11696I-118J-1D01*
G01*
G54D35*
G75*
G01X6691Y12151D02*
G03X6691Y12150I-59J0D01*
G01*
G54D12*
G75*
G01X29978Y10804D02*
G03X29978Y10802I-118J-1D01*
G01*
G54D10*
G75*
G01X21659Y12720D02*
G03X21659Y14280I590J780D01*
G01*
G75*
G01X17730Y10462D02*
G03X17730Y10462I-30J0D01*
G01*
M00*
M02*
