;Layer: Drill PTH
;EasyEDA v5.9.42, Fri, 19 Apr 2019 15:14:02 GMT
;1b50a63325eb494884fe414bfed8a826
;Gerber Generator version 0.2
M48
INCH,LZ,00.0000
;Holesize 1 = 0.012 INCH
T01C0.012
;Holesize 2 = 0.022 INCH
T02C0.022
;Holesize 3 = 0.024 INCH
T03C0.024
;Holesize 4 = 0.028 INCH
T04C0.028
;Holesize 5 = 0.032 INCH
T05C0.032
;Holesize 6 = 0.035 INCH
T06C0.035
;Holesize 7 = 0.047 INCH
T07C0.047
%
G05
G90
T01
X+007000Y+015500
X+019100Y+015500
X+031200Y+015500
X+008000Y+015250
X+020100Y+015250
X+032200Y+015250
X+006000Y+001700
X+018100Y+001700
X+030250Y+001700
X+007050Y+001950
X+019100Y+001950
X+031200Y+001950
X+047200Y+008750
X+047200Y+014250
X+047250Y+003300
X+001550Y+005200
X+007800Y+011350
X+008300Y+006800
X+008300Y+002200
X+016050Y+002200
X+007650Y+009300
X+007650Y+002450
X+008600Y+008800
X+008600Y+002700
X+028200Y+002200
X+040250Y+002200
X+017100Y+002950
X+008850Y+002950
X+008850Y+010300
X+007650Y+009800
X+006000Y+011100
X+004050Y+008600
X+005000Y+007550
X+005700Y+010600
X+006750Y+005950
X+008300Y+007850
X+012700Y+010250
X+012700Y+006300
X+016900Y+009750
X+016900Y+012100
X+016600Y+010000
X+016650Y+005700
X+005700Y+010100
X+005700Y+007850
X+005300Y+003850
X+001750Y+010100
X+009450Y+004450
X+009450Y+009300
X+012700Y+003800
X+013350Y+008250
X+017800Y+003800
X+017800Y+007550
X+018500Y+013100
X+018500Y+008300
X+019250Y+012700
X+018900Y+012300
X+019250Y+008200
X+018900Y+007950
X+019550Y+013900
X+019550Y+009500
X+025250Y+008300
X+025250Y+014000
X+025850Y+013000
X+025850Y+010450
X+020750Y+011400
X+020750Y+009250
X+029700Y+011400
X+029700Y+009400
X+021000Y+008950
X+021000Y+011700
X+021250Y+008700
X+021250Y+011950
X+031900Y+011700
X+031900Y+010400
X+032250Y+010900
X+032250Y+011950
X+030100Y+010400
X+030100Y+012400
X+045900Y+013600
X+045550Y+009700
X+044650Y+005650
X+044000Y+014250
X+045900Y+003950
X+040650Y+009900
X+040650Y+011650
X+021550Y+010250
X+021850Y+010000
X+022250Y+009750
X+022250Y+003000
X+021850Y+003300
X+021550Y+003600
X+043100Y+003600
X+043450Y+003300
X+043850Y+003000
X+043850Y+008150
X+043850Y+014900
X+042700Y+003900
X+029900Y+006200
X+031500Y+006200
X+023250Y+005000
X+036450Y+006300
X+035450Y+006650
X+020050Y+005700
X+020000Y+005400
X+016900Y+008700
X+016900Y+003550
X+016350Y+008200
X+016350Y+003300
X+021150Y+003300
X+021150Y+004100
X+028200Y+004350
X+031650Y+007150
X+020250Y+006200
X+019550Y+009150
X+030950Y+006900
X+017200Y+009200
X+019750Y+005050
X+019750Y+003000
X+017450Y+003000
X+016350Y+008950
X+019054Y+004700
X+016050Y+004500
X+017750Y+010700
X+017750Y+014950
X+035000Y+014550
X+033950Y+014250
X+016600Y+014700
X+033700Y+006200
X+033700Y+013950
X+016900Y+014300
X+034950Y+002300
X+038000Y+002300
X+038000Y+013600
X+024050Y+013600
X+024050Y+008450
X+018850Y+003800
X+009800Y+016550
X+021250Y+016500
X+033600Y+016600
X+027000Y+006350
X+029500Y+003950
X+029500Y+002250
X+021500Y+003000
X+021850Y+002200
X+042800Y+001550
X+041800Y+001400
X+038750Y+005400
X+026650Y+009700
X+017650Y+016050
X+029750Y+016000
X+016650Y+016950
X+028750Y+016950
T02
X+002071Y+005367G85X+002286Y+005367
X+002071Y+002532G85X+002286Y+002532
T03
X+000644Y+002532G85X+000998Y+002532
X+000644Y+005367G85X+000998Y+005367
T04
X+022250Y+014000
X+022250Y+013500
X+022250Y+013000
T05
X+004023Y+000786
X+005023Y+000786
X+006023Y+000786
X+007023Y+000786
X+008023Y+000786
X+008023Y+016534
X+007023Y+016534
X+006023Y+016534
X+005023Y+016534
X+004023Y+016534
X+016123Y+000786
X+017123Y+000786
X+018123Y+000786
X+019123Y+000786
X+020123Y+000786
X+020123Y+016534
X+019123Y+016534
X+018123Y+016534
X+017123Y+016534
X+016123Y+016534
X+028223Y+000786
X+029223Y+000786
X+030223Y+000786
X+031223Y+000786
X+032223Y+000786
X+032223Y+016534
X+031223Y+016534
X+030223Y+016534
X+029223Y+016534
X+028223Y+016534
X+040323Y+000786
X+041323Y+000786
X+042323Y+000786
X+043323Y+000786
X+044323Y+000786
X+044323Y+016534
X+043323Y+016534
X+042323Y+016534
X+041323Y+016534
X+040323Y+016534
T06
X+001150Y+014650
X+001150Y+013650
X+001150Y+012650
X+001150Y+011650
X+036950Y+004650
X+028950Y+005650
X+028950Y+004650
X+029950Y+005650
X+029950Y+004650
X+030950Y+005650
X+030950Y+004650
X+031950Y+005650
X+031950Y+004650
X+032950Y+005650
X+032950Y+004650
X+033950Y+005650
X+033950Y+004650
X+034950Y+005650
X+034950Y+004650
X+035950Y+005650
X+035950Y+004650
X+036950Y+005650
T07
X+041700Y+007240
X+041700Y+010190
M30
